<svg width="60" height="60" viewBox="0 0 60 60" fill="none" xmlns="http://www.w3.org/2000/svg">
<path d="M57.589 8.93956C56.8207 8.14351 55.9085 7.51204 54.9046 7.08121C53.9007 6.65039 52.8247 6.42864 51.738 6.42864C50.6513 6.42864 49.5753 6.65039 48.5714 7.08121C47.5675 7.51204 46.6553 8.14351 45.887 8.93956C45.3666 9.47889 44.9179 10.0878 44.5529 10.7501L37.2567 8.6878C37.2792 6.98271 36.8102 5.30942 35.9096 3.88195C35.0091 2.45449 33.7179 1.33777 32.2013 0.67462C30.6847 0.0114716 29.0116 -0.167947 27.396 0.159313C25.7805 0.486573 24.2959 1.30563 23.1321 2.51172C21.8895 3.80193 21.0755 5.46821 20.8078 7.26946C20.54 9.0707 20.8325 10.9135 21.6429 12.5311L12.8677 20.7132C11.2756 19.6232 9.36908 19.1358 7.47021 19.3334C5.57134 19.531 3.79652 20.4015 2.44558 21.7979C0.935053 23.3508 0.0602576 25.4468 0.00299841 27.6505C-0.0542608 29.8542 0.710421 31.996 2.13812 33.6308C3.56582 35.2656 5.54673 36.2676 7.66917 36.4287C9.79161 36.5897 11.8923 35.8974 13.5348 34.4955L31.6332 48.2511C31.054 49.7536 30.8972 51.3951 31.1808 52.9861C31.4644 54.577 32.177 56.0522 33.236 57.2413C34.2951 58.4303 35.6574 59.2845 37.1655 59.7052C38.6735 60.1259 40.2657 60.0958 41.758 59.6184C43.2502 59.1411 44.5816 58.236 45.5981 57.0077C46.6146 55.7795 47.2747 54.2783 47.5022 52.6777C47.7296 51.0771 47.5151 49.4426 46.8834 47.963C46.2516 46.4834 45.2286 45.2193 43.9324 44.3167L51.0141 23.5361C51.2519 23.5575 51.4898 23.5682 51.7277 23.5682C53.3637 23.568 54.9629 23.0653 56.3232 22.1237C57.6835 21.1821 58.7437 19.8439 59.3699 18.2783C59.9961 16.7126 60.1602 14.9898 59.8414 13.3275C59.5225 11.6653 58.7351 10.1383 57.5786 8.93956H57.589ZM26.046 5.54084C26.6247 4.94202 27.3618 4.53436 28.1641 4.3694C28.9665 4.20444 29.798 4.28958 30.5536 4.61406C31.3093 4.93854 31.9551 5.48779 32.4094 6.19239C32.8638 6.89699 33.1063 7.7253 33.1063 8.57263C33.1063 9.41997 32.8638 10.2483 32.4094 10.9529C31.9551 11.6575 31.3093 12.2067 30.5536 12.5312C29.798 12.8557 28.9665 12.9408 28.1641 12.7759C27.3618 12.6109 26.6247 12.2033 26.046 11.6044C25.662 11.2057 25.3577 10.7326 25.1504 10.212C24.9431 9.69138 24.8369 9.13356 24.8379 8.57041C24.8388 8.00727 24.9469 7.44984 25.156 6.93001C25.3651 6.41017 25.671 5.93812 26.0563 5.54084H26.046ZM5.36202 30.8906C4.97739 30.4926 4.67227 30.02 4.46409 29.4998C4.2559 28.9796 4.14875 28.422 4.14875 27.8588C4.14875 27.2957 4.2559 26.738 4.46409 26.2178C4.67227 25.6976 4.97739 25.225 5.36202 24.827C5.94074 24.2282 6.67785 23.8205 7.48019 23.6556C8.28252 23.4906 9.11405 23.5758 9.86968 23.9002C10.6253 24.2247 11.2711 24.774 11.7255 25.4786C12.1798 26.1832 12.4223 27.0115 12.4223 27.8588C12.4223 28.7061 12.1798 29.5345 11.7255 30.2391C11.2711 30.9436 10.6253 31.4929 9.86968 31.8174C9.11405 32.1419 8.28252 32.227 7.48019 32.062C6.67785 31.8971 5.94074 31.4894 5.36202 30.8906ZM42.2441 54.4593C41.4682 55.263 40.4159 55.7146 39.3186 55.7146C38.2213 55.7146 37.169 55.263 36.3931 54.4593C35.6172 53.6556 35.1813 52.5655 35.1813 51.4289C35.1813 50.2922 35.6172 49.2021 36.3931 48.3984C36.7773 48.0004 37.2334 47.6848 37.7353 47.4694C38.2373 47.254 38.7753 47.1432 39.3186 47.1432C39.8619 47.1432 40.3999 47.254 40.9019 47.4694C41.4038 47.6848 41.8599 48.0004 42.2441 48.3984C42.6283 48.7964 42.933 49.2688 43.1409 49.7888C43.3488 50.3088 43.4559 50.8661 43.4559 51.4289C43.4559 51.9917 43.3488 52.549 43.1409 53.0689C42.933 53.5889 42.6283 54.0614 42.2441 54.4593ZM40.0335 42.8946C37.8886 42.7011 35.7554 43.3813 34.0868 44.7908L15.9884 31.0352C16.427 29.8891 16.623 28.6588 16.5633 27.4275C16.5035 26.1961 16.1893 24.9924 15.6419 23.8977L24.4197 15.7156C25.364 16.3639 26.4268 16.8044 27.5422 17.0099C28.6577 17.2153 29.8019 17.1812 30.9041 16.9098C32.0063 16.6384 33.0429 16.1353 33.9498 15.4319C34.8566 14.7284 35.6143 13.8396 36.1759 12.8204L43.4618 14.8853C43.4421 16.31 43.7656 17.7173 44.403 18.9799C45.0405 20.2426 45.9717 21.3206 47.1126 22.1166L40.0335 42.8946ZM54.657 18.0296C54.2788 18.453 53.8219 18.793 53.3138 19.0291C52.8057 19.2652 52.2568 19.3926 51.7 19.4037C51.1431 19.4148 50.5899 19.3093 50.0734 19.0935C49.5569 18.8777 49.0878 18.5561 48.6942 18.148C48.3006 17.7399 47.9905 17.2537 47.7827 16.7185C47.5749 16.1833 47.4735 15.6101 47.4847 15.0333C47.4958 14.4565 47.6193 13.888 47.8477 13.3619C48.0761 12.8357 48.4047 12.3628 48.8138 11.9714C49.5897 11.1676 50.642 10.7161 51.7393 10.7161C52.8366 10.7161 53.8889 11.1676 54.6648 11.9714C55.4407 12.7751 55.8766 13.8652 55.8766 15.0018C55.8766 16.1384 55.4407 17.2285 54.6648 18.0323L54.657 18.0296Z" fill="black"/>
</svg>
